<?xml version="1.0" encoding="UTF-8"?>
<svg xmlns="http://www.w3.org/2000/svg" xmlns:xlink="http://www.w3.org/1999/xlink" width="21px" height="21px" viewBox="0 0 21 21" version="1.1">
<defs>
<linearGradient id="linear0" gradientUnits="userSpaceOnUse" x1="-13.3431" y1="-2.27923" x2="31.9498" y2="31.2549" gradientTransform="matrix(0.65625,0,0,0.65625,0,0)">
<stop offset="0" style="stop-color:rgb(92.156863%,20%,28.627451%);stop-opacity:1;"/>
<stop offset="1" style="stop-color:rgb(95.686275%,36.078431%,26.27451%);stop-opacity:1;"/>
</linearGradient>
</defs>
<g id="surface1">
<path style=" stroke:none;fill-rule:evenodd;fill:url(#linear0);" d="M 1.199219 15.863281 C 0.175781 16.886719 0.175781 18.550781 1.199219 19.574219 C 2.226562 20.601562 3.886719 20.601562 4.914062 19.574219 L 10.386719 14.101562 L 16.050781 19.761719 C 17.074219 20.785156 18.738281 20.785156 19.761719 19.761719 C 20.785156 18.738281 20.785156 17.074219 19.761719 16.050781 L 14.101562 10.386719 L 19.761719 4.726562 C 20.785156 3.699219 20.785156 2.039062 19.761719 1.011719 C 18.738281 -0.0117188 17.074219 -0.0117188 16.050781 1.011719 L 10.386719 6.675781 L 4.914062 1.199219 C 3.886719 0.175781 2.226562 0.175781 1.199219 1.199219 C 0.175781 2.226562 0.175781 3.886719 1.199219 4.914062 L 6.675781 10.386719 Z M 1.199219 15.863281 "/>
</g>
</svg>
